<svg xmlns="http://www.w3.org/2000/svg" viewBox="0 -68.925 600.068 600.068">
<style>@media (prefers-color-scheme: dark) { g { fill: #fff } }</style>
<g transform="translate(-127.977130,605.723309) scale(0.100000,-0.100000)"
fill="#000000" stroke="none">
<path d="M4250 6054 c-14 -2 -56 -9 -95 -15 -38 -6 -77 -15 -86 -20 -10 -5
-40 0 -80 13 -91 29 -128 19 -434 -118 -143 -63 -316 -140 -385 -170 -227
-100 -264 -120 -307 -167 -23 -25 -45 -56 -48 -69 -6 -22 30 -335 59 -515 14
-89 33 -121 121 -202 26 -24 45 -44 43 -46 -2 -1 -57 -12 -123 -24 -155 -28
-152 -27 -160 -59 -13 -51 -56 -130 -96 -176 -25 -28 -35 -46 -26 -46 11 0
271 56 395 85 17 4 22 1 22 -14 0 -32 20 -44 190 -120 254 -113 406 -216 586
-396 61 -61 145 -158 187 -215 71 -96 80 -114 127 -256 28 -84 60 -164 71
-178 l19 -24 -74 -155 -74 -155 32 -6 c49 -10 181 -70 250 -115 34 -23 65 -41
68 -41 3 0 29 66 58 148 30 81 54 148 54 148 1 1 54 -9 119 -22 112 -23 121
-26 180 -74 85 -68 80 -69 382 26 160 50 184 62 205 104 18 36 150 414 150
431 0 5 -16 27 -36 49 -20 22 -34 43 -32 48 1 4 27 42 57 84 l53 76 87 17 c47
9 116 24 154 32 l67 15 -72 50 c-40 27 -105 81 -145 120 l-72 71 -58 -50
c-548 -469 -753 -639 -787 -650 -72 -25 -143 4 -176 72 l-22 46 21 336 c12
184 26 343 30 352 5 9 22 28 38 42 32 30 999 692 1025 702 10 3 20 2 23 -3 12
-20 35 -10 35 16 0 44 -16 59 -142 141 -134 87 -183 108 -233 100 -18 -3 -273
-143 -567 -311 -488 -279 -539 -311 -595 -369 -43 -44 -65 -76 -73 -106 -8
-31 -9 -126 -4 -339 l7 -296 -97 89 c-53 50 -99 88 -101 85 -2 -3 -13 8 -26
24 -12 16 -84 83 -159 150 -74 66 -233 208 -352 314 -118 106 -231 201 -249
210 -19 9 -34 22 -34 27 -1 6 -6 19 -12 30 -16 29 -31 116 -54 325 -27 247
-27 327 3 357 13 12 243 120 512 239 l489 216 46 -20 c25 -11 82 -34 126 -52
44 -18 203 -93 354 -166 151 -74 278 -134 282 -134 17 0 81 65 100 101 78 153
-94 321 -395 385 -69 15 -296 27 -346 18z"/>
<path d="M2687 6030 c-14 -11 -34 -20 -45 -20 -10 0 -27 -9 -37 -20 -22 -24
-20 -31 58 -234 62 -161 62 -161 67 -116 3 25 8 50 12 55 4 6 47 31 97 55 50
25 91 49 91 53 0 14 -109 165 -150 208 -42 44 -57 47 -93 19z"/>
<path d="M4005 5716 c-229 -45 -384 -134 -443 -257 -31 -64 -30 -154 2 -217
64 -125 238 -231 456 -276 336 -69 717 26 838 209 142 214 -48 447 -432 532
-97 21 -332 26 -421 9z m297 -116 c38 -23 65 -46 63 -53 -6 -15 158 -109 177
-102 16 6 163 -76 163 -91 0 -10 -203 -123 -222 -124 -7 0 -47 22 -88 48 -76
49 -76 49 -53 65 41 28 -8 20 -63 -10 -46 -27 -69 -53 -31 -38 41 17 52 14
125 -32 42 -26 77 -50 77 -53 0 -3 -56 -36 -125 -73 l-125 -68 -75 52 c-43 31
-74 58 -71 66 7 17 -151 126 -172 118 -15 -6 -152 79 -152 94 1 3 55 32 121
63 l120 57 71 -46 71 -46 -24 -18 c-13 -10 -18 -19 -12 -19 18 0 123 53 123
62 0 11 -4 10 -34 -3 -22 -10 -33 -6 -95 32 -39 24 -70 46 -70 49 0 6 209 108
223 109 6 1 40 -17 78 -39z"/>
<path d="M6123 5080 c-101 -9 -209 -38 -286 -77 -42 -21 -47 -26 -35 -40 9
-12 13 -51 12 -137 0 -135 -44 -379 -90 -507 -14 -38 -22 -78 -19 -89 3 -10
34 -45 68 -76 255 -237 608 -358 941 -324 188 19 337 81 437 181 144 144 169
338 68 537 -135 268 -507 498 -850 527 -40 3 -92 7 -114 9 -22 2 -82 0 -132
-4z"/>
<path d="M1990 5059 c-306 -38 -590 -201 -680 -390 -86 -181 12 -329 270 -411
68 -21 92 -23 260 -22 166 1 195 3 283 27 245 65 456 209 532 361 33 65 34
160 4 222 -40 84 -153 158 -295 194 -89 23 -271 32 -374 19z"/>
<path d="M3655 2956 c-193 -30 -370 -119 -500 -252 -115 -116 -181 -236 -211
-384 -76 -376 175 -741 591 -862 70 -20 102 -23 255 -23 194 0 248 10 392 71
236 100 414 301 474 534 22 85 22 244 0 330 -102 402 -539 657 -1001 586z"/>
</g>
</svg>
